<svg width="123" height="123" viewBox="0 0 123 123" fill="none" xmlns="http://www.w3.org/2000/svg">
<circle cx="61.3362" cy="61.2418" r="60.7825" fill="white"/>
<path d="M55.3333 41.1667L61 35.5M49.6667 72.3333L72.3333 49.6667M61 86.5L66.6667 80.8333M73.75 80.8333C75.6286 80.8333 77.4303 80.0871 78.7587 78.7587C80.0871 77.4303 80.8333 75.6286 80.8333 73.75C80.8333 71.8714 80.0871 70.0697 78.7587 68.7413C77.4303 67.4129 75.6286 66.6667 73.75 66.6667C71.8714 66.6667 70.0697 67.4129 68.7413 68.7413C67.4129 70.0697 66.6667 71.8714 66.6667 73.75C66.6667 75.6286 67.4129 77.4303 68.7413 78.7587C70.0697 80.0871 71.8714 80.8333 73.75 80.8333ZM48.25 55.3333C50.1286 55.3333 51.9303 54.5871 53.2587 53.2587C54.5871 51.9303 55.3333 50.1286 55.3333 48.25C55.3333 46.3714 54.5871 44.5697 53.2587 43.2413C51.9303 41.9129 50.1286 41.1667 48.25 41.1667C46.3714 41.1667 44.5697 41.9129 43.2413 43.2413C41.9129 44.5697 41.1667 46.3714 41.1667 48.25C41.1667 50.1286 41.9129 51.9303 43.2413 53.2587C44.5697 54.5871 46.3714 55.3333 48.25 55.3333ZM42.5833 86.5C44.4619 86.5 46.2636 85.7537 47.592 84.4253C48.9204 83.097 49.6667 81.2953 49.6667 79.4167C49.6667 77.538 48.9204 75.7364 47.592 74.408C46.2636 73.0796 44.4619 72.3333 42.5833 72.3333C40.7047 72.3333 38.903 73.0796 37.5747 74.408C36.2463 75.7364 35.5 77.538 35.5 79.4167C35.5 81.2953 36.2463 83.097 37.5747 84.4253C38.903 85.7537 40.7047 86.5 42.5833 86.5ZM79.4167 49.6667C81.2953 49.6667 83.097 48.9204 84.4253 47.592C85.7537 46.2636 86.5 44.4619 86.5 42.5833C86.5 40.7047 85.7537 38.903 84.4253 37.5747C83.097 36.2463 81.2953 35.5 79.4167 35.5C77.538 35.5 75.7364 36.2463 74.408 37.5747C73.0796 38.903 72.3333 40.7047 72.3333 42.5833C72.3333 44.4619 73.0796 46.2636 74.408 47.592C75.7364 48.9204 77.538 49.6667 79.4167 49.6667Z" stroke="#6E30A7" stroke-width="4" stroke-linecap="round" stroke-linejoin="round"/>
</svg>
